<?xml version="1.0" standalone="no"?>
<!DOCTYPE svg PUBLIC "-//W3C//DTD SVG 20010904//EN"
 "http://www.w3.org/TR/2001/REC-SVG-20010904/DTD/svg10.dtd">
<svg version="1.0" xmlns="http://www.w3.org/2000/svg"
 width="599.000000pt" height="599.000000pt" viewBox="0 0 599.000000 599.000000"
 preserveAspectRatio="xMidYMid meet">
<metadata>
Created by potrace 1.14, written by Peter Selinger 2001-2017
</metadata>
<g transform="translate(0.000000,599.000000) scale(0.100000,-0.100000)"
fill="#000000" stroke="none">
<path d="M2980 5985 c0 -6 -25 -10 -60 -9 -33 1 -60 -1 -60 -5 0 -3 -24 -7
-53 -7 -113 -3 -158 -8 -163 -16 -3 -5 -12 -4 -20 3 -8 6 -14 7 -14 3 0 -5
-23 -10 -52 -12 -29 -1 -56 -6 -61 -11 -5 -5 -16 -7 -23 -4 -8 3 -14 -1 -14
-8 0 -11 -3 -11 -10 1 -5 8 -10 10 -10 4 0 -6 -11 -10 -25 -9 -14 2 -27 -1
-31 -6 -3 -5 -20 -9 -38 -9 -18 0 -36 -3 -40 -7 -3 -4 -12 -8 -19 -9 -7 -2
-23 -6 -37 -9 -14 -3 -36 -8 -49 -11 -13 -3 -31 -9 -40 -13 -9 -5 -18 -9 -21
-8 -12 2 -101 -26 -106 -34 -2 -4 -11 -6 -19 -2 -8 3 -15 0 -15 -7 0 -6 -4 -9
-8 -6 -12 7 -82 -15 -82 -26 0 -5 -4 -7 -9 -4 -10 7 -82 -29 -75 -37 3 -3 -3
-3 -15 0 -12 3 -21 1 -21 -6 0 -6 -3 -10 -7 -10 -21 3 -33 -2 -27 -13 4 -7 3
-8 -4 -4 -7 4 -29 -2 -50 -13 -20 -10 -45 -22 -55 -25 -11 -3 -15 -11 -11 -17
4 -7 3 -9 -4 -6 -13 9 -93 -33 -86 -45 3 -4 -1 -5 -9 -2 -8 3 -22 -2 -30 -11
-9 -9 -30 -21 -47 -26 -16 -6 -30 -15 -30 -20 0 -5 -7 -9 -16 -9 -8 0 -12 -4
-9 -10 3 -5 0 -7 -8 -5 -7 3 -26 -6 -41 -20 -15 -14 -31 -25 -36 -25 -5 0 -14
-8 -19 -17 -6 -10 -11 -14 -11 -10 0 5 -14 -1 -30 -13 -17 -12 -28 -26 -24
-31 3 -5 2 -8 -3 -7 -19 6 -117 -74 -105 -86 3 -3 -3 -6 -12 -6 -22 0 -68 -35
-58 -45 4 -3 3 -6 -3 -5 -22 5 -36 -1 -29 -12 4 -7 3 -8 -5 -4 -7 4 -25 -6
-45 -26 -19 -18 -43 -39 -54 -47 -12 -8 -19 -18 -17 -21 2 -4 -7 -13 -21 -21
-16 -8 -24 -19 -21 -30 3 -12 0 -16 -9 -12 -9 3 -14 -1 -14 -12 0 -9 -4 -13
-10 -10 -5 3 -10 2 -10 -4 0 -13 -59 -71 -72 -71 -6 0 -9 -3 -5 -6 3 -4 -13
-24 -36 -45 -22 -22 -38 -39 -34 -39 5 0 -6 -15 -22 -32 -17 -18 -31 -36 -31
-40 0 -5 -9 -18 -20 -30 -42 -48 -48 -57 -43 -62 4 -3 1 -6 -5 -6 -7 0 -12 -9
-12 -21 0 -11 -4 -18 -9 -15 -5 4 -15 -7 -23 -24 -7 -16 -16 -30 -19 -30 -8 0
-33 -61 -30 -73 1 -5 -3 -6 -9 -2 -9 5 -14 -7 -11 -27 0 -4 -7 -4 -17 -1 -9 3
-14 3 -10 -2 6 -7 -26 -79 -42 -95 -13 -13 -40 -70 -33 -70 4 0 3 -4 -3 -8
-17 -11 -46 -71 -39 -82 3 -6 2 -10 -4 -10 -10 0 -27 -38 -23 -52 1 -5 -3 -8
-9 -8 -6 0 -8 -7 -5 -16 3 -8 2 -12 -4 -9 -9 6 -14 -8 -11 -27 0 -5 -3 -8 -8
-8 -10 0 -27 -39 -23 -52 1 -5 -3 -8 -9 -8 -5 0 -7 -4 -4 -10 3 -5 0 -10 -7
-10 -10 0 -10 -2 -1 -8 10 -7 10 -12 -1 -28 -11 -15 -12 -22 -3 -33 9 -12 9
-13 0 -7 -12 7 -17 -6 -16 -41 1 -7 -4 -13 -9 -13 -6 0 -7 -7 -4 -16 3 -8 2
-12 -4 -9 -12 7 -24 -40 -14 -56 4 -8 3 -9 -4 -5 -7 4 -12 4 -13 -1 0 -4 -3
-17 -6 -28 -2 -11 -5 -32 -6 -47 -1 -14 -6 -24 -11 -21 -5 4 -7 -4 -4 -15 4
-12 2 -22 -4 -22 -6 0 -8 -6 -5 -14 3 -7 0 -19 -6 -25 -8 -8 -7 -11 4 -11 12
0 12 -2 -1 -10 -8 -5 -10 -10 -5 -10 6 0 3 -5 -5 -10 -11 -7 -11 -10 -2 -10 9
0 10 -5 4 -17 -5 -10 -9 -32 -8 -50 0 -17 -2 -29 -6 -27 -4 3 -7 -4 -8 -13 -2
-72 -5 -93 -13 -93 -4 0 -5 -4 -2 -10 3 -5 2 -10 -2 -10 -5 0 -8 -12 -8 -27 1
-16 -3 -36 -7 -45 -5 -10 -5 -18 0 -18 5 0 9 -7 9 -15 0 -8 -5 -15 -11 -15 -7
0 -7 -3 -1 -8 12 -8 16 -44 5 -37 -10 6 -18 -83 -9 -97 4 -6 3 -22 -1 -34 -6
-14 -5 -26 1 -29 5 -4 6 -12 2 -18 -11 -17 -11 -367 0 -367 5 0 7 -6 4 -14 -3
-8 -3 -17 1 -20 8 -9 12 -31 13 -83 1 -26 5 -40 12 -36 6 4 7 1 1 -8 -13 -21
-14 -42 -2 -56 8 -10 7 -13 -3 -13 -9 0 -10 -3 -4 -8 6 -4 12 -20 14 -37 1
-16 8 -36 14 -44 10 -12 9 -13 -1 -7 -11 6 -11 4 -3 -10 9 -18 21 -48 26 -66
2 -5 4 -11 5 -15 1 -5 2 -11 1 -15 0 -5 4 -8 10 -8 8 0 8 -4 0 -13 -6 -8 -7
-17 -2 -23 5 -5 11 -20 13 -34 1 -14 8 -28 13 -32 6 -5 5 -8 -4 -8 -11 0 -11
-3 -1 -15 6 -8 9 -19 5 -25 -3 -5 -1 -10 5 -10 6 0 9 -4 6 -9 -6 -10 25 -71
36 -71 3 0 4 -9 1 -20 -3 -12 0 -20 6 -20 7 0 10 -4 7 -8 -3 -5 1 -21 9 -36
10 -18 11 -25 2 -21 -7 4 -5 1 4 -7 9 -7 14 -19 11 -27 -3 -9 0 -11 8 -6 10 6
12 4 7 -8 -3 -9 1 -23 9 -32 8 -8 12 -19 9 -25 -3 -5 1 -10 10 -10 9 0 14 -4
11 -9 -9 -13 4 -42 15 -35 5 3 9 2 8 -3 -5 -27 2 -53 13 -47 7 4 8 3 4 -5 -4
-6 -1 -23 8 -36 9 -13 16 -31 16 -40 0 -9 7 -18 15 -21 8 -4 12 -10 9 -15 -3
-5 0 -9 5 -9 6 0 11 -6 11 -13 0 -7 9 -23 19 -34 11 -12 17 -24 14 -27 -4 -3
-1 -6 6 -6 7 0 9 -4 6 -10 -3 -5 -1 -10 5 -10 6 0 8 -4 5 -10 -3 -5 2 -10 11
-10 10 0 15 -3 11 -6 -8 -9 21 -64 33 -64 6 0 10 -6 10 -13 0 -7 10 -24 23
-37 12 -14 21 -28 20 -32 -2 -5 2 -8 7 -8 6 0 10 -6 10 -14 0 -8 9 -18 21 -21
11 -4 18 -9 15 -12 -9 -10 15 -44 26 -37 7 4 8 3 4 -4 -4 -6 2 -20 13 -31 11
-11 17 -22 14 -25 -3 -3 2 -8 11 -12 9 -3 16 -12 16 -20 0 -13 13 -19 33 -15
5 1 5 -4 1 -10 -4 -7 9 -26 30 -45 21 -19 34 -34 30 -34 -3 0 -1 -7 6 -15 7
-8 17 -12 24 -8 6 3 8 3 4 -1 -9 -11 33 -57 45 -49 6 3 7 1 3 -6 -4 -6 0 -14
8 -17 9 -3 13 -10 10 -15 -3 -5 2 -9 11 -9 9 0 13 -5 10 -10 -3 -5 0 -10 7
-10 7 0 19 -9 26 -20 7 -11 27 -29 45 -40 18 -11 28 -20 23 -20 -5 0 -1 -9 9
-20 10 -11 27 -20 38 -20 11 0 17 -3 14 -6 -7 -8 24 -38 66 -62 15 -9 27 -20
27 -24 0 -4 7 -8 15 -8 8 0 15 -7 15 -16 0 -8 4 -13 9 -10 5 3 19 -4 33 -17
34 -31 110 -80 125 -80 6 0 11 -5 10 -11 -1 -6 4 -10 11 -9 6 2 12 -2 12 -7 0
-6 7 -10 15 -10 8 0 15 -4 15 -10 0 -5 6 -10 14 -10 8 0 17 -7 20 -16 3 -8 11
-12 17 -8 6 3 14 3 18 -2 3 -5 24 -18 46 -30 22 -11 57 -31 78 -43 21 -12 43
-18 49 -15 7 5 8 2 3 -6 -6 -10 -3 -12 13 -8 13 4 20 2 19 -6 -1 -6 4 -10 11
-9 6 2 12 -2 12 -8 0 -5 4 -8 9 -4 5 3 12 1 16 -5 4 -6 11 -8 16 -5 5 4 9 2 9
-3 0 -8 67 -35 83 -32 4 0 15 -6 23 -15 9 -8 20 -13 25 -10 5 4 9 2 9 -4 0 -9
44 -29 45 -20 1 2 13 -4 28 -13 14 -10 42 -19 61 -20 19 -2 32 -7 28 -12 -3
-5 2 -7 11 -3 10 4 17 1 17 -5 0 -6 3 -8 7 -5 3 4 13 1 21 -6 13 -10 14 -9 7
3 -8 13 -6 13 8 2 19 -16 117 -43 129 -36 4 3 8 1 8 -3 0 -8 15 -12 58 -15 6
-1 12 -4 12 -8 0 -6 9 -7 77 -12 17 -2 29 -7 26 -12 -3 -5 0 -6 8 -4 8 3 30
-1 50 -7 25 -9 41 -10 54 -3 11 7 16 7 12 1 -4 -6 3 -11 16 -11 43 -2 98 -10
104 -16 3 -3 13 0 21 7 11 8 14 9 9 0 -6 -9 11 -11 63 -10 38 1 70 -2 70 -7 0
-5 7 -3 15 4 12 10 15 10 15 0 0 -7 7 -10 15 -7 8 4 17 3 19 -2 3 -4 31 -6 63
-4 32 2 90 5 128 7 108 5 107 5 99 18 -5 8 -3 8 7 2 20 -13 79 -12 79 1 0 5 4
5 8 -2 8 -12 52 -7 52 6 0 4 26 7 58 8 48 1 97 7 97 13 0 3 40 10 85 16 25 3
52 8 60 11 17 6 65 15 93 16 9 1 17 5 17 9 0 4 8 7 18 7 9 0 26 2 37 5 11 2
26 5 33 5 7 1 10 6 6 13 -4 7 -3 8 5 4 11 -7 67 7 103 25 10 5 22 9 28 9 6 0
49 18 96 40 47 22 90 40 95 40 5 0 9 6 9 13 0 8 4 7 10 -3 7 -11 10 -11 10 -2
0 7 5 10 10 7 6 -3 10 -1 10 4 0 6 3 10 8 10 20 -3 32 2 26 13 -4 7 -3 8 4 4
7 -4 18 -4 25 1 12 8 17 9 38 12 5 0 7 6 3 13 -4 6 -3 8 4 4 14 -8 74 28 64
39 -4 4 1 5 12 1 12 -4 24 0 33 11 9 12 12 13 8 3 -5 -12 -4 -12 7 1 7 9 16
16 21 17 20 3 65 37 60 45 -4 6 -1 7 7 2 8 -5 17 -2 24 7 9 12 51 34 51 27 0
-2 10 5 22 16 12 10 20 22 17 27 -3 5 -2 7 3 6 15 -5 103 57 99 69 -3 7 1 10
9 7 17 -7 47 20 37 31 -4 5 -2 5 5 1 7 -3 25 7 43 24 17 16 34 30 38 30 13 0
87 74 84 83 -1 5 1 6 6 3 12 -7 54 38 45 49 -5 4 -3 5 4 1 6 -3 16 2 22 11 6
10 11 15 11 11 0 -5 10 2 22 14 13 13 22 26 21 30 -2 5 0 7 5 7 17 -3 32 2 29
9 -1 4 21 30 48 57 78 78 133 143 127 149 -3 3 0 6 6 6 16 0 83 90 76 102 -3
5 2 12 13 14 10 3 25 20 33 37 7 18 21 37 29 44 9 7 12 13 8 13 -5 0 -1 7 8
16 9 9 14 23 11 30 -3 8 0 11 10 7 13 -5 19 8 15 30 -1 5 3 6 8 3 5 -3 14 8
21 24 7 17 17 30 22 30 5 0 7 4 3 9 -3 5 -1 12 5 16 6 4 8 11 5 16 -4 5 -1 9
5 9 6 0 8 5 5 10 -3 6 -2 10 3 10 6 0 13 11 16 25 4 14 11 25 17 25 6 0 7 5 4
10 -3 6 -2 10 2 10 12 0 44 56 36 64 -3 3 -1 6 6 6 7 0 10 4 6 9 -3 5 0 13 6
16 5 4 8 14 5 22 -3 8 -1 11 4 8 9 -5 15 15 11 37 0 5 3 8 8 8 8 0 20 23 27
53 1 4 3 10 4 15 1 4 2 10 1 15 0 4 4 7 10 7 6 0 9 7 5 15 -3 8 -1 15 5 15 6
0 9 6 6 14 -3 8 1 17 9 20 9 3 13 10 9 15 -3 5 -1 12 5 16 5 3 10 17 10 30 0
13 5 27 11 30 6 4 8 13 5 21 -3 8 -1 14 5 14 6 0 8 4 4 9 -3 5 -1 12 4 16 5 3
10 13 10 23 1 42 8 74 16 80 6 4 10 21 10 39 -1 17 4 29 9 26 5 -4 7 1 3 9 -3
9 -3 19 1 23 4 4 7 10 8 13 0 4 4 15 8 24 5 10 6 25 2 33 -3 8 -1 15 5 15 6 0
9 7 6 15 -4 8 -2 17 3 20 10 6 8 24 -4 44 -6 10 -5 12 2 7 7 -4 12 -1 12 8 0
21 0 21 10 56 5 19 5 32 -2 36 -7 4 -7 9 1 13 6 4 12 25 14 47 2 23 8 47 12
54 6 9 4 11 -4 5 -10 -6 -11 -3 -2 13 15 28 14 45 -1 36 -9 -5 -8 -2 1 10 16
19 24 233 9 242 -5 3 -5 11 0 17 10 14 10 167 -1 184 -4 6 -4 14 1 17 5 3 7
17 6 33 -2 15 -4 42 -5 58 -2 17 -7 36 -13 44 -8 11 -8 13 2 7 6 -4 12 -2 12
3 0 6 -4 11 -8 11 -4 0 -7 12 -6 28 1 15 -5 38 -13 51 -10 15 -11 21 -3 16 10
-6 11 -1 6 20 -4 15 -10 41 -13 59 -3 17 -11 37 -17 45 -9 12 -8 13 3 6 11 -6
12 -5 5 6 -9 15 -12 29 -16 67 -1 12 -5 22 -8 22 -4 0 -8 22 -10 73 -1 9 -5
17 -9 17 -4 0 -8 12 -9 28 -1 34 -4 46 -26 107 -10 28 -21 57 -24 65 -3 8 -6
21 -8 29 -1 8 -6 17 -11 20 -5 3 -9 14 -10 24 -1 34 -3 38 -12 33 -5 -4 -7 3
-4 14 3 11 -4 30 -16 46 -11 14 -18 30 -15 35 3 5 0 9 -5 9 -6 0 -11 7 -11 15
0 8 -4 15 -9 15 -5 0 -8 8 -7 18 0 9 -4 16 -10 15 -7 -1 -10 6 -7 16 2 10 -1
24 -9 32 -7 8 -13 21 -13 29 0 8 -6 14 -13 12 -8 -1 -11 2 -7 8 4 6 1 17 -5
25 -7 8 -9 15 -4 15 4 0 -2 9 -14 21 -12 11 -20 24 -17 30 4 5 -1 12 -9 15 -9
3 -14 10 -11 14 3 5 1 11 -5 15 -6 4 -8 11 -5 16 4 5 1 9 -4 9 -6 0 -11 7 -11
16 0 8 -4 12 -10 9 -5 -3 -10 3 -10 14 0 12 -5 21 -12 21 -6 0 -8 3 -5 6 10
11 -13 45 -25 38 -6 -4 -8 -3 -5 3 4 6 -4 22 -17 36 -13 14 -22 28 -20 30 3 2
-2 10 -11 17 -8 7 -15 18 -15 24 0 6 -13 26 -29 44 -17 17 -27 32 -23 32 4 0
-6 9 -21 19 -16 10 -28 21 -28 25 3 20 -1 26 -14 26 -8 0 -15 6 -15 13 0 7 -9
23 -20 35 -11 12 -20 26 -20 32 0 6 -4 8 -10 5 -5 -3 -10 1 -10 9 0 8 -9 17
-20 21 -11 3 -19 10 -17 14 1 5 -26 36 -60 71 -35 34 -63 66 -63 70 0 5 -9 12
-20 15 -11 4 -18 10 -15 15 3 4 -12 20 -33 36 -20 15 -38 32 -40 36 -2 4 -8 8
-14 8 -14 0 -38 26 -31 34 4 3 -1 6 -10 6 -9 0 -20 6 -24 14 -10 17 -100 86
-112 86 -5 0 -12 7 -15 16 -4 9 -13 14 -22 10 -8 -3 -12 -2 -9 3 3 5 -4 12
-15 16 -11 3 -20 10 -20 15 0 9 -40 25 -53 22 -5 -1 -6 2 -2 8 3 5 -1 10 -10
10 -9 0 -13 5 -10 10 3 6 -3 10 -14 10 -12 0 -21 5 -21 10 0 6 -7 10 -15 10
-8 0 -15 3 -15 8 0 4 -15 14 -32 22 -18 7 -42 22 -52 32 -15 14 -22 15 -28 6
-5 -9 -8 -8 -8 5 0 10 -4 15 -10 12 -5 -3 -10 -2 -10 3 0 10 -53 36 -66 32 -4
-1 -10 2 -13 7 -12 16 -128 76 -148 76 -7 0 -13 5 -13 10 0 6 -3 7 -6 4 -4 -4
-19 0 -33 7 -45 23 -76 37 -91 40 -15 3 -39 11 -75 26 -62 25 -102 37 -117 35
-10 -2 -18 0 -18 5 0 5 -11 7 -25 6 -15 -2 -22 1 -18 7 4 6 0 8 -9 4 -9 -3
-20 -1 -26 5 -5 5 -28 11 -50 11 -22 1 -38 5 -36 8 4 6 -43 17 -93 22 -13 1
-23 4 -23 7 0 3 -17 6 -38 6 -43 2 -80 9 -128 24 -20 7 -38 10 -40 7 -3 -3
-19 -1 -36 4 -22 6 -36 5 -47 -4 -10 -8 -13 -8 -8 0 10 15 -12 22 -45 12 -14
-4 -29 -4 -33 -1 -11 11 -105 9 -105 -3 0 -6 -3 -7 -8 0 -11 15 -52 18 -52 4
0 -7 -7 -4 -15 7 -11 14 -14 15 -15 4 0 -13 -1 -13 -10 0 -5 8 -10 10 -10 5z"/>
</g>
</svg>
