<?xml version="1.0" encoding="iso-8859-1"?>
<!-- Generator: Adobe Illustrator 16.0.0, SVG Export Plug-In . SVG Version: 6.00 Build 0)  -->
<!DOCTYPE svg PUBLIC "-//W3C//DTD SVG 1.1//EN" "http://www.w3.org/Graphics/SVG/1.1/DTD/svg11.dtd">
<svg version="1.1" id="Capa_1" xmlns="http://www.w3.org/2000/svg" xmlns:xlink="http://www.w3.org/1999/xlink" x="0px" y="0px"
	 width="381.4px" height="381.399px" viewBox="0 0 381.4 381.399" style="enable-background:new 0 0 381.4 381.399;"
	 xml:space="preserve">
<g>
	<path d="M89.453,251.241c0-1.062,0.337-2.156,1.026-3.075c1.387-1.816,3.819-2.507,5.956-1.667l63.654,25.143V5.095
		c0-2.819,2.29-5.095,5.105-5.095h51.017c2.812,0,5.095,2.276,5.095,5.095v266.547l63.66-25.143c2.137-0.84,4.57-0.149,5.948,1.667
		c1.385,1.839,1.376,4.361-0.024,6.183l-96.151,125.058c-0.964,1.261-2.463,1.993-4.05,1.993c-1.576,0-3.077-0.746-4.042-1.993
		L90.512,254.349C89.8,253.43,89.453,252.33,89.453,251.241z"/>
</g>
<g>
</g>
<g>
</g>
<g>
</g>
<g>
</g>
<g>
</g>
<g>
</g>
<g>
</g>
<g>
</g>
<g>
</g>
<g>
</g>
<g>
</g>
<g>
</g>
<g>
</g>
<g>
</g>
<g>
</g>
</svg>
