<?xml version="1.0" encoding="iso-8859-1"?>
<!-- Generator: Adobe Illustrator 16.0.0, SVG Export Plug-In . SVG Version: 6.00 Build 0)  -->
<!DOCTYPE svg PUBLIC "-//W3C//DTD SVG 1.1//EN" "http://www.w3.org/Graphics/SVG/1.1/DTD/svg11.dtd">
<svg version="1.1" id="Capa_1" xmlns="http://www.w3.org/2000/svg" xmlns:xlink="http://www.w3.org/1999/xlink" x="0px" y="0px"
	 width="411.98px" height="411.98px" viewBox="0 0 411.98 411.98" style="enable-background:new 0 0 411.98 411.98;"
	 xml:space="preserve">
<g>
	<path d="M315.352,140.591c0,1.149-0.366,2.332-1.111,3.325c-1.489,1.965-4.126,2.705-6.431,1.803l-68.754-27.163v287.922
		c0,3.044-2.471,5.503-5.515,5.503h-55.106c-3.038,0-5.503-2.459-5.503-5.503V118.556l-68.766,27.163
		c-2.306,0.901-4.93,0.162-6.425-1.803c-1.496-1.986-1.484-4.71,0.036-6.682L201.623,2.152C202.663,0.795,204.277,0,205.997,0
		c1.703,0,3.322,0.801,4.368,2.152l103.841,135.082C314.973,138.232,315.352,139.417,315.352,140.591z"/>
</g>
<g>
</g>
<g>
</g>
<g>
</g>
<g>
</g>
<g>
</g>
<g>
</g>
<g>
</g>
<g>
</g>
<g>
</g>
<g>
</g>
<g>
</g>
<g>
</g>
<g>
</g>
<g>
</g>
<g>
</g>
</svg>
